<svg width="9" height="9" viewBox="0 0 9 9" fill="none" xmlns="http://www.w3.org/2000/svg">
<path d="M6.0003 6.23448L6.73838 5.4961C6.83779 5.39788 6.96356 5.33065 7.10043 5.30256C7.2373 5.27448 7.37938 5.28674 7.50941 5.33787L8.40895 5.69718C8.54036 5.75054 8.65304 5.84162 8.73278 5.95894C8.81253 6.07626 8.85578 6.21457 8.85707 6.35644V8.00462C8.85631 8.10113 8.83603 8.19648 8.79746 8.28495C8.75888 8.37341 8.70281 8.45315 8.63262 8.51936C8.56244 8.58558 8.47958 8.6369 8.38904 8.67023C8.2985 8.70356 8.20216 8.71823 8.10581 8.71333C1.80244 8.32107 0.530569 2.98099 0.290033 0.937255C0.278867 0.836893 0.289069 0.735304 0.319967 0.639169C0.350866 0.543035 0.401761 0.454536 0.469304 0.379492C0.536847 0.304449 0.619507 0.244563 0.711847 0.203773C0.804186 0.162984 0.904112 0.142216 1.00505 0.142836H2.59654C2.73856 0.143256 2.87721 0.186172 2.99465 0.266063C3.11209 0.345954 3.20295 0.459166 3.25555 0.591139L3.6147 1.49104C3.66751 1.62061 3.68098 1.76287 3.65344 1.90005C3.62589 2.03724 3.55856 2.16326 3.45984 2.26239L2.72175 3.00077C2.72175 3.00077 3.14681 5.87847 6.0003 6.23448Z" fill="black"/>
</svg>
